<mxfile host="app.diagrams.net" modified="2023-10-18T03:22:42.966Z" agent="Mozilla/5.0 (Macintosh; Intel Mac OS X 10_15_7) AppleWebKit/537.36 (KHTML, like Gecko) Chrome/118.0.0.0 Safari/537.36" version="21.7.2" etag="tXEwUadYnGI5Cm_hE9i7" type="github">
  <diagram name="第 1 页" id="FVXQyWjH6wfLl32kJO0y">
    <mxGraphModel>
      <root>
        <mxCell id="0" />
        <mxCell id="1" parent="0" />
      </root>
    </mxGraphModel>
  </diagram>
</mxfile>
